<svg width="120" height="40" viewBox="0 0 120 40" fill="none" xmlns="http://www.w3.org/2000/svg">
<g clip-path="url(#clip0)">
<g filter="url(#filter0_d)">
<rect width="120" height="40" rx="4" fill="#1D2A53"/>
</g>
<path d="M42.3283 10.9214C42.3439 11.2386 42.2949 11.5558 42.1844 11.8535C42.0739 12.1512 41.904 12.4232 41.6852 12.6531C41.44 12.908 41.1437 13.1082 40.8159 13.2404C40.4881 13.3727 40.1361 13.4342 39.7829 13.4208C39.2489 13.4146 38.7285 13.2512 38.2865 12.9509C37.8445 12.6506 37.5005 12.2266 37.2974 11.7318C37.0942 11.2371 37.0409 10.6934 37.144 10.1684C37.2471 9.6435 37.5021 9.16057 37.8773 8.77981C38.1255 8.52708 38.4224 8.32764 38.75 8.19365C39.0777 8.05965 39.4291 7.99391 39.7829 8.00044C40.1483 7.9994 40.5101 8.07313 40.846 8.21712C41.1579 8.34376 41.4355 8.54263 41.6559 8.79745L41.2006 9.25348C41.0269 9.04918 40.8086 8.88753 40.5627 8.78096C40.3168 8.67438 40.0497 8.62572 39.7821 8.63872C39.5127 8.63733 39.2458 8.6904 38.9974 8.79475C38.7489 8.8991 38.5241 9.05258 38.3362 9.24601C38.1483 9.43944 38.0014 9.66885 37.9041 9.9205C37.8068 10.1722 37.7612 10.4409 37.77 10.7106C37.7638 11.1145 37.8775 11.5112 38.0966 11.8504C38.3157 12.1895 38.6303 12.4559 39.0006 12.6158C39.371 12.7757 39.7803 12.8219 40.1769 12.7486C40.5735 12.6753 40.9394 12.4857 41.2283 12.2038C41.494 11.9167 41.6481 11.5436 41.6626 11.1524H39.7804V10.53H42.2905C42.3147 10.6591 42.3273 10.7901 42.3283 10.9214V10.9214Z" fill="white"/>
<path d="M46.3065 8.75462H43.9473V10.3999H46.0743V11.0222H43.9473V12.6674H46.3065V13.3049H43.2825V8.11719H46.3065V8.75462Z" fill="white"/>
<path d="M49.1127 13.3057H48.4462V8.75462H47V8.11719H50.5589V8.75462H49.1127V13.3057Z" fill="white"/>
<path d="M53.134 13.3057V8.11719H53.7989V13.3057H53.134Z" fill="white"/>
<path d="M56.7501 13.3057H56.0844V8.75462H54.6382V8.11719H58.1971V8.75462H56.7501V13.3057Z" fill="white"/>
<path d="M64.9355 12.6355C64.4313 13.1388 63.7487 13.4213 63.037 13.4213C62.3253 13.4213 61.6426 13.1388 61.1384 12.6355C60.6483 12.1152 60.3752 11.4269 60.3752 10.7114C60.3752 9.99602 60.6483 9.30768 61.1384 8.78737C61.6416 8.28349 62.3238 8.00043 63.0353 8.00043C63.7467 8.00043 64.429 8.28349 64.9321 8.78737C65.4232 9.30654 65.6969 9.99454 65.6969 10.7098C65.6969 11.425 65.4232 12.113 64.9321 12.6321L64.9355 12.6355ZM61.6297 12.2005C62.0032 12.5739 62.5093 12.7836 63.037 12.7836C63.5646 12.7836 64.0707 12.5739 64.4442 12.2005C64.8146 11.7933 65.0199 11.2623 65.0199 10.7114C65.0199 10.1606 64.8146 9.62954 64.4442 9.2224C64.0707 8.849 63.5646 8.63928 63.037 8.63928C62.5093 8.63928 62.0032 8.849 61.6297 9.2224C61.2598 9.6298 61.0548 10.1607 61.0548 10.7114C61.0548 11.2621 61.2598 11.7931 61.6297 12.2005V12.2005Z" fill="white"/>
<path d="M66.6321 13.3057V8.11719H67.4428L69.9579 12.1526H69.9864L69.9579 11.1532V8.11719H70.6236V13.3057H69.9311L67.2978 9.07376H67.2692L67.2978 10.074V13.3057H66.6321Z" fill="white"/>
<path d="M60.2112 20.8735C59.4859 20.877 58.7778 21.0956 58.1764 21.5018C57.575 21.9081 57.1072 22.4836 56.832 23.1559C56.5568 23.8282 56.4866 24.5671 56.6303 25.2794C56.7739 25.9916 57.1249 26.6452 57.6391 27.1578C58.1532 27.6704 58.8074 28.0189 59.519 28.1593C60.2307 28.2998 60.968 28.226 61.6378 27.9471C62.3076 27.6682 62.8799 27.1969 63.2826 26.5925C63.6852 25.9881 63.9001 25.2777 63.9001 24.5511C63.9073 24.0647 63.8166 23.5818 63.6335 23.1312C63.4505 22.6806 63.1787 22.2715 62.8345 21.9283C62.4903 21.5851 62.0806 21.3149 61.6299 21.1337C61.1793 20.9524 60.6968 20.864 60.2112 20.8735ZM60.2112 26.7792C59.7643 26.8113 59.3181 26.7078 58.9307 26.4822C58.5433 26.2566 58.2328 25.9194 58.0394 25.5145C57.846 25.1096 57.7789 24.6557 57.8467 24.212C57.9144 23.7684 58.114 23.3554 58.4194 23.027C58.7248 22.6985 59.1218 22.4698 59.5588 22.3706C59.9958 22.2714 60.4525 22.3063 60.8694 22.4708C61.2863 22.6352 61.6441 22.9216 61.8962 23.2927C62.1483 23.6638 62.283 24.1023 62.2828 24.5511C62.2965 24.8346 62.2533 25.1179 62.1559 25.3844C62.0586 25.6509 61.909 25.8952 61.7159 26.1029C61.5229 26.3106 61.2903 26.4775 61.0319 26.5938C60.7735 26.7101 60.4944 26.7734 60.2112 26.7801V26.7792ZM52.172 20.8735C51.4467 20.877 50.7386 21.0956 50.1372 21.5018C49.5358 21.9081 49.068 22.4836 48.7928 23.1559C48.5176 23.8282 48.4474 24.5671 48.5911 25.2794C48.7347 25.9916 49.0857 26.6452 49.5999 27.1578C50.114 27.6704 50.7682 28.0189 51.4798 28.1593C52.1915 28.2998 52.9288 28.226 53.5986 27.9471C54.2684 27.6682 54.8407 27.1969 55.2433 26.5925C55.646 25.9881 55.8609 25.2777 55.8609 24.5511C55.868 24.0647 55.7774 23.5818 55.5943 23.1312C55.4113 22.6806 55.1395 22.2715 54.7953 21.9283C54.4511 21.5851 54.0414 21.3149 53.5907 21.1337C53.14 20.9524 52.6576 20.864 52.172 20.8735ZM52.172 26.7792C51.7251 26.8113 51.2789 26.7078 50.8915 26.4822C50.5041 26.2566 50.1935 25.9194 50.0002 25.5145C49.8068 25.1096 49.7397 24.6557 49.8075 24.212C49.8752 23.7684 50.0748 23.3554 50.3802 23.027C50.6856 22.6985 51.0826 22.4698 51.5196 22.3706C51.9566 22.2714 52.4133 22.3063 52.8302 22.4708C53.2471 22.6352 53.6049 22.9216 53.857 23.2927C54.1091 23.6638 54.2438 24.1023 54.2436 24.5511C54.2572 24.8346 54.2141 25.1179 54.1167 25.3844C54.0194 25.6509 53.8698 25.8952 53.6767 26.1029C53.4837 26.3106 53.2511 26.4775 52.9927 26.5938C52.7343 26.7101 52.4552 26.7734 52.172 26.7801V26.7792ZM42.6086 22.0022V23.5618H46.3352C46.2815 24.2933 45.9828 24.9851 45.4876 25.5253C45.1141 25.9067 44.6649 26.2054 44.169 26.4022C43.6731 26.5989 43.1415 26.6893 42.6086 26.6675C41.5199 26.652 40.4809 26.2079 39.7165 25.4311C38.952 24.6543 38.5235 23.6074 38.5235 22.5166C38.5235 21.4259 38.952 20.3789 39.7165 19.6021C40.4809 18.8254 41.5199 18.3812 42.6086 18.3657C43.6548 18.352 44.6641 18.7525 45.4172 19.4802L46.5129 18.38C45.999 17.8702 45.3886 17.4684 44.7176 17.198C44.0466 16.9276 43.3284 16.7941 42.6053 16.8053C41.0933 16.8053 39.6432 17.407 38.5741 18.478C37.5049 19.549 36.9043 21.0016 36.9043 22.5162C36.9043 24.0308 37.5049 25.4834 38.5741 26.5544C39.6432 27.6254 41.0933 28.2271 42.6053 28.2271C43.3437 28.2579 44.0803 28.1309 44.766 27.8546C45.4518 27.5783 46.071 27.1591 46.5825 26.6247C47.4919 25.6338 47.9785 24.326 47.9382 22.9806C47.9418 22.6539 47.9138 22.3277 47.8544 22.0064L42.6086 22.0022ZM81.719 23.2141C81.4982 22.5481 81.0782 21.9662 80.5158 21.5476C79.9535 21.129 79.2762 20.8939 78.5759 20.8743C78.1042 20.8772 77.6379 20.9759 77.2054 21.1644C76.7728 21.3529 76.3829 21.6274 76.0592 21.9711C75.7356 22.3149 75.4849 22.7209 75.3223 23.1645C75.1597 23.6081 75.0887 24.0801 75.1134 24.552C75.1027 25.0355 75.1895 25.5162 75.3685 25.9654C75.5475 26.4146 75.815 26.823 76.1551 27.1663C76.4952 27.5096 76.9009 27.7807 77.348 27.9634C77.795 28.1461 78.2742 28.2366 78.757 28.2296C79.3618 28.233 79.958 28.0858 80.4919 27.8013C81.0259 27.5167 81.481 27.1038 81.8162 26.5995L80.5645 25.7597C80.3771 26.0716 80.112 26.3294 79.7951 26.5077C79.4782 26.686 79.1204 26.7787 78.757 26.7767C78.3835 26.7915 78.0142 26.6937 77.6968 26.4961C77.3794 26.2985 77.1284 26.0101 76.9763 25.6681L81.8858 23.6332L81.719 23.2141ZM76.7122 24.4403C76.6946 24.1725 76.7306 23.9039 76.818 23.6503C76.9054 23.3966 77.0426 23.163 77.2213 22.9632C77.4 22.7633 77.6168 22.6012 77.8589 22.4864C78.101 22.3716 78.3636 22.3063 78.6312 22.2945C78.9098 22.2759 79.1878 22.34 79.4302 22.4787C79.6727 22.6175 79.8689 22.8248 79.9944 23.0747L76.7122 24.4403ZM72.7215 28.0062H74.3337V17.195H72.7215V28.0062ZM70.0781 21.6957H70.0227C69.7775 21.4289 69.4783 21.2177 69.145 21.0761C68.8118 20.9344 68.4522 20.8656 68.0903 20.8743C67.1438 20.9149 66.2494 21.32 65.594 22.0053C64.9385 22.6906 64.5726 23.6029 64.5726 24.552C64.5726 25.501 64.9385 26.4134 65.594 27.0986C66.2494 27.7839 67.1438 28.1891 68.0903 28.2296C68.454 28.2389 68.8153 28.1685 69.1491 28.0235C69.4829 27.8784 69.781 27.6622 70.0227 27.3898H70.0781V27.9197C70.0781 29.3264 69.3277 30.0789 68.118 30.0789C67.7147 30.0691 67.3235 29.9392 66.9941 29.7059C66.6647 29.4726 66.4122 29.1464 66.2685 28.7688L64.8642 29.3567C65.129 30.0023 65.5803 30.554 66.1601 30.9411C66.74 31.3282 67.422 31.533 68.1188 31.5293C70.0102 31.5293 71.6098 30.4149 71.6098 27.6988V21.096H70.0781V21.6957ZM68.2269 26.7801C67.6685 26.7339 67.1477 26.4791 66.7681 26.0662C66.3885 25.6533 66.1777 25.1125 66.1777 24.5511C66.1777 23.9898 66.3885 23.449 66.7681 23.036C67.1477 22.6231 67.6685 22.3683 68.2269 22.3222C68.5043 22.3359 68.7761 22.4054 69.0261 22.5265C69.2761 22.6476 69.4992 22.8179 69.6821 23.0272C69.865 23.2365 70.004 23.4806 70.0907 23.7449C70.1775 24.0091 70.2102 24.2882 70.1871 24.5654C70.2088 24.8409 70.1749 25.1179 70.0873 25.3799C69.9997 25.642 69.8602 25.8836 69.6772 26.0904C69.4942 26.2971 69.2714 26.4648 69.0223 26.5833C68.7731 26.7018 68.5026 26.7687 68.2269 26.7801ZM89.2702 17.1967H85.4137V28.0062H87.0234V23.9103H89.2727C90.1621 23.9103 91.0151 23.5564 91.644 22.9264C92.2729 22.2964 92.6263 21.4419 92.6263 20.551C92.6263 19.66 92.2729 18.8056 91.644 18.1756C91.0151 17.5456 90.1621 17.1916 89.2727 17.1916L89.2702 17.1967ZM89.3113 22.4037H87.02V18.6975H89.3113C89.8018 18.6975 90.2722 18.8927 90.6191 19.2401C90.9659 19.5875 91.1608 20.0588 91.1608 20.5501C91.1608 21.0415 90.9659 21.5127 90.6191 21.8602C90.2722 22.2076 89.8018 22.4028 89.3113 22.4028V22.4037ZM99.2662 20.8516C98.6783 20.8172 98.0931 20.9554 97.5825 21.2493C97.0718 21.5432 96.6579 21.98 96.3914 22.5061L97.8217 23.1049C97.9635 22.8436 98.1783 22.6295 98.4398 22.4886C98.7013 22.3478 98.9981 22.2865 99.2939 22.3121C99.7026 22.2723 100.11 22.3964 100.428 22.6573C100.745 22.9181 100.946 23.2945 100.987 23.7037V23.8146C100.471 23.5389 99.8955 23.3947 99.3106 23.3947C97.7697 23.3947 96.2003 24.2429 96.2003 25.8302C96.2151 26.1647 96.297 26.4928 96.441 26.795C96.5849 27.0972 96.7881 27.3673 97.0384 27.5893C97.2887 27.8113 97.5809 27.9805 97.8978 28.0871C98.2147 28.1936 98.5498 28.2352 98.8831 28.2095C99.2888 28.2334 99.6935 28.148 100.055 27.962C100.417 27.7761 100.722 27.4964 100.939 27.1521H100.994V27.9869H102.548V23.8431C102.548 21.9241 101.118 20.8542 99.2721 20.8542L99.2662 20.8516ZM99.0717 26.7759C98.5435 26.7759 97.8083 26.5121 97.8083 25.8588C97.8083 25.024 98.7238 24.704 99.516 24.704C100.03 24.6903 100.538 24.815 100.987 25.0651C100.929 25.5332 100.704 25.9643 100.353 26.2792C100.002 26.594 99.5501 26.7713 99.0793 26.7784L99.0717 26.7759ZM108.21 21.0876L106.366 25.7748H106.31L104.394 21.0876H102.658L105.532 27.6384L103.894 31.2824H105.571L110 21.0885L108.21 21.0876ZM93.7061 28.0037H95.3166V17.1958H93.7061V28.0037Z" fill="white"/>
<path d="M10.4022 8.58246C10.1195 8.92184 9.97676 9.35649 10.0031 9.7977V28.9216C9.97668 29.3629 10.1194 29.7975 10.4022 30.1369L10.4659 30.199L21.1602 19.4861V19.2341L10.4659 8.51947L10.4022 8.58246Z" fill="url(#paint0_linear)"/>
<path d="M24.7252 23.0587L21.1621 19.486V19.2341L24.7277 15.6623L24.8116 15.7093L29.0353 18.1129C30.2409 18.7999 30.2409 19.9228 29.0353 20.6097L24.8116 23.0134L24.7252 23.0587Z" fill="url(#paint1_linear)"/>
<path d="M24.807 23.0125L21.1609 19.3592L10.4028 30.1369C10.6488 30.3541 10.963 30.4784 11.2908 30.488C11.6186 30.4977 11.9395 30.3922 12.1978 30.1898L24.807 23.0125Z" fill="url(#paint2_linear)"/>
<path d="M24.807 15.7076L12.1978 8.53035C11.9395 8.32779 11.6186 8.22218 11.2908 8.23184C10.9629 8.24151 10.6488 8.36584 10.4028 8.58326L21.1609 19.3601L24.807 15.7076Z" fill="url(#paint3_linear)"/>
<path opacity="0.2" d="M24.7275 22.9319L12.1979 30.0629C11.9497 30.2524 11.6467 30.3558 11.3347 30.3574C11.0227 30.3591 10.7186 30.259 10.4684 30.0722L10.4038 30.136L10.4675 30.199C10.7177 30.3858 11.0218 30.4859 11.3339 30.4842C11.6459 30.4826 11.9489 30.3792 12.1971 30.1898L24.8071 23.0125L24.7275 22.9319Z" fill="black"/>
<path opacity="0.12" d="M10.4029 30.0109C10.1196 29.6715 9.97664 29.2368 10.0031 28.7956V28.9224C9.9766 29.3634 10.1196 29.7979 10.4029 30.1368L10.4676 30.073L10.4029 30.0109Z" fill="black"/>
<path opacity="0.12" d="M29.0301 20.4821L24.7258 22.9319L24.8097 23.0159L29.0334 20.6123C29.2818 20.5033 29.4965 20.3296 29.6551 20.1092C29.8136 19.8888 29.9102 19.6298 29.9347 19.3592V19.3592C29.8815 19.604 29.7721 19.833 29.615 20.0279C29.458 20.2229 29.2577 20.3784 29.0301 20.4821Z" fill="black"/>
<path opacity="0.25" d="M12.1966 8.65682L29.0304 18.2385C29.2579 18.3422 29.4582 18.4975 29.6152 18.6923C29.7723 18.8871 29.8818 19.1159 29.935 19.3605C29.9094 19.0909 29.8119 18.8332 29.6527 18.6142C29.4936 18.3953 29.2787 18.2232 29.0304 18.1159L12.1966 8.53085C10.9902 7.84386 10.0034 8.41495 10.0034 9.79816V9.92497C10.0034 8.54176 10.9902 7.97067 12.1966 8.65682Z" fill="white"/>
</g>
<defs>
<filter id="filter0_d" x="-16" y="-12" width="152" height="72" filterUnits="userSpaceOnUse" color-interpolation-filters="sRGB">
<feFlood flood-opacity="0" result="BackgroundImageFix"/>
<feColorMatrix in="SourceAlpha" type="matrix" values="0 0 0 0 0 0 0 0 0 0 0 0 0 0 0 0 0 0 127 0" result="hardAlpha"/>
<feOffset dy="4"/>
<feGaussianBlur stdDeviation="8"/>
<feColorMatrix type="matrix" values="0 0 0 0 0.337255 0 0 0 0 0.486275 0 0 0 0 0.678431 0 0 0 0.16 0"/>
<feBlend mode="normal" in2="BackgroundImageFix" result="effect1_dropShadow"/>
<feBlend mode="normal" in="SourceGraphic" in2="effect1_dropShadow" result="shape"/>
</filter>
<linearGradient id="paint0_linear" x1="20.2116" y1="151.908" x2="3.08325" y2="147.364" gradientUnits="userSpaceOnUse">
<stop stop-color="#00A0FF"/>
<stop offset="0.007" stop-color="#00A1FF"/>
<stop offset="0.26" stop-color="#00BEFF"/>
<stop offset="0.512" stop-color="#00D2FF"/>
<stop offset="0.76" stop-color="#00DFFF"/>
<stop offset="1" stop-color="#00E3FF"/>
</linearGradient>
<linearGradient id="paint1_linear" x1="30.6066" y1="142.127" x2="9.70761" y2="142.127" gradientUnits="userSpaceOnUse">
<stop stop-color="#FFE000"/>
<stop offset="0.409" stop-color="#FFBD00"/>
<stop offset="0.775" stop-color="#FFA500"/>
<stop offset="1" stop-color="#FF9C00"/>
</linearGradient>
<linearGradient id="paint2_linear" x1="22.8192" y1="140.258" x2="9.02991" y2="117.082" gradientUnits="userSpaceOnUse">
<stop stop-color="#FF3A44"/>
<stop offset="1" stop-color="#C31162"/>
</linearGradient>
<linearGradient id="paint3_linear" x1="7.69485" y1="159.394" x2="13.857" y2="149.048" gradientUnits="userSpaceOnUse">
<stop stop-color="#32A071"/>
<stop offset="0.068" stop-color="#2DA771"/>
<stop offset="0.476" stop-color="#15CF74"/>
<stop offset="0.801" stop-color="#06E775"/>
<stop offset="1" stop-color="#00F076"/>
</linearGradient>
<clipPath id="clip0">
<rect width="120" height="40" fill="white"/>
</clipPath>
</defs>
</svg>
