<svg width="120" height="40" viewBox="0 0 120 40" fill="none" xmlns="http://www.w3.org/2000/svg">
<g clip-path="url(#clip0)">
<g filter="url(#filter0_d)">
<rect width="120" height="40" rx="4" fill="#1C2951"/>
</g>
<path d="M25.4048 19.2693C25.4252 18.4426 25.6622 17.6353 26.0924 16.9269C26.5227 16.2184 27.1314 15.6332 27.8588 15.2287C27.3702 14.5911 26.7427 14.0711 26.0231 13.7075C25.3036 13.3438 24.5106 13.1459 23.7032 13.1285C21.9551 12.9575 20.2596 14.1064 19.3683 14.1064C18.4598 14.1064 17.0884 13.1456 15.611 13.1738C14.6727 13.193 13.7544 13.4463 12.9409 13.9103C12.1273 14.3743 11.4448 15.0341 10.9563 15.8288C8.94269 19.0873 10.4443 23.8767 12.3734 26.5138C13.3388 27.8037 14.4663 29.2449 15.942 29.1936C17.3858 29.1372 17.9245 28.3328 19.6692 28.3328C21.3931 28.3328 21.9026 29.1936 23.4084 29.1611C24.96 29.1372 25.9349 27.8652 26.8658 26.5634C27.555 25.6524 28.089 24.6357 28.4467 23.5536C27.5657 23.2242 26.8049 22.6399 26.2629 21.8764C25.7209 21.1129 25.4229 20.2055 25.4074 19.2719L25.4048 19.2693Z" fill="white"/>
<path d="M22.5595 11.397C22.9742 10.9378 23.2908 10.4 23.4902 9.81622C23.6896 9.2324 23.7677 8.61457 23.7198 8C22.4455 8.11853 21.2583 8.69277 20.3796 9.61557C19.9649 10.0503 19.645 10.5652 19.4401 11.1281C19.2351 11.6909 19.1494 12.2897 19.1883 12.8869C19.8258 12.8972 20.4578 12.7692 21.0402 12.5118C21.6225 12.2545 22.1411 11.874 22.5595 11.397V11.397Z" fill="white"/>
<path d="M42.7315 26.0556H37.9906L36.8528 29.197H34.8469L39.3361 17.5717H41.4221L45.9113 29.197H43.8693L42.7315 26.0556ZM38.4828 24.6024H42.2367L40.3843 19.5044H40.3403L38.4828 24.6024Z" fill="white"/>
<path d="M55.6049 24.9599C55.6049 27.5927 54.0973 29.2843 51.8217 29.2843C51.2552 29.3181 50.6902 29.198 50.1876 28.9368C49.6849 28.6756 49.2637 28.2832 48.9694 27.8021H48.9263V31.9992H47.0662V20.7235H48.8677V22.1322H48.9022C49.2088 21.6536 49.6369 21.2633 50.1436 21.0005C50.6502 20.7377 51.2176 20.6115 51.7889 20.6346C54.0887 20.6346 55.6049 22.3348 55.6049 24.9599ZM53.6922 24.9599C53.6922 23.2443 52.744 22.1168 51.2968 22.1168C49.8754 22.1168 48.9186 23.2682 48.9186 24.9599C48.9186 26.6695 49.8745 27.8106 51.2968 27.8106C52.744 27.8106 53.6922 26.6908 53.6922 24.9599Z" fill="white"/>
<path d="M65.5807 24.9599C65.5807 27.5927 64.0723 29.2843 61.7975 29.2843C61.2308 29.3185 60.6655 29.1987 60.1625 28.9376C59.6596 28.6765 59.2381 28.2842 58.9435 27.8029H58.9004V32H57.0471V20.7235H58.8487V22.1322H58.8831C59.1898 21.6536 59.6179 21.2633 60.1245 21.0005C60.6312 20.7377 61.1986 20.6115 61.7699 20.6346C64.0662 20.6346 65.5807 22.3348 65.5807 24.9599ZM63.668 24.9599C63.668 23.2443 62.7198 22.1168 61.2725 22.1168C59.8511 22.1168 58.8943 23.2682 58.8943 24.9599C58.8943 26.6695 59.8503 27.8106 61.2725 27.8106C62.7215 27.8106 63.6697 26.6908 63.6697 24.9599H63.668Z" fill="white"/>
<path d="M72.1766 25.9594C72.3145 27.1116 73.5127 27.869 75.1487 27.869C76.7175 27.869 77.8458 27.1125 77.8458 26.0739C77.8458 25.1721 77.1649 24.6318 75.5538 24.2617L73.9428 23.8993C71.6594 23.3864 70.6 22.3854 70.6 20.7664C70.6 18.7611 72.4697 17.384 75.1237 17.384C77.7519 17.384 79.5534 18.7611 79.6137 20.7664H77.7346C77.6226 19.6065 76.5968 18.9064 75.0978 18.9064C73.5989 18.9064 72.5731 19.615 72.5731 20.6459C72.5731 21.4674 73.2282 21.9512 74.8306 22.3213L76.2003 22.6359C78.7518 23.2001 79.8103 24.1574 79.8103 25.8576C79.8103 28.0322 77.9587 29.3939 75.0116 29.3939C72.2533 29.3939 70.3923 28.0639 70.2708 25.9619L72.1766 25.9594Z" fill="white"/>
<path d="M83.829 18.7183V20.7237H85.5529V22.1008H83.829V26.7722C83.829 27.498 84.1737 27.8365 84.9323 27.8365C85.1369 27.8331 85.3409 27.8197 85.5443 27.7963V29.164C85.2029 29.2235 84.8565 29.2504 84.5099 29.2443C82.6748 29.2443 81.9585 28.5998 81.9585 26.9569V22.1008H80.6414V20.7237H81.9593V18.7183H83.829Z" fill="white"/>
<path d="M86.5493 24.9598C86.5412 24.3947 86.6465 23.8337 86.8589 23.3094C87.0714 22.785 87.3869 22.3077 87.7869 21.9053C88.187 21.5029 88.6638 21.1834 89.1895 20.9653C89.7152 20.7471 90.2794 20.6348 90.8492 20.6348C91.4191 20.6348 91.9833 20.7471 92.509 20.9653C93.0347 21.1834 93.5115 21.5029 93.9115 21.9053C94.3116 22.3077 94.6271 22.785 94.8396 23.3094C95.052 23.8337 95.1573 24.3947 95.1492 24.9598C95.1492 27.6328 93.4856 29.3013 90.8488 29.3013C88.212 29.3013 86.5493 27.6328 86.5493 24.9598ZM93.2529 24.9598C93.2529 23.1314 92.3564 22.0535 90.8488 22.0535C89.3412 22.0535 88.4448 23.1408 88.4448 24.9598C88.4448 26.7959 89.3412 27.8661 90.8488 27.8661C92.3564 27.8661 93.2529 26.7951 93.2529 24.9598Z" fill="white"/>
<path d="M96.6833 20.7246H98.4582V22.1666H98.5013C98.637 21.7047 98.9264 21.302 99.3224 21.024C99.7184 20.746 100.198 20.6091 100.682 20.6357C100.896 20.6349 101.11 20.6567 101.32 20.7006V22.3247C101.048 22.2473 100.766 22.2118 100.484 22.2196C100.216 22.2082 99.9497 22.2518 99.7003 22.3479C99.4508 22.444 99.2243 22.5904 99.0348 22.7778C98.8525 22.958 98.7138 23.1769 98.629 23.4179C98.5442 23.6589 98.5156 23.9158 98.5452 24.1694V29.1956H96.6833V20.7246Z" fill="white"/>
<path d="M109.896 26.7068C109.646 28.2454 108.042 29.3002 105.993 29.3002C103.356 29.3002 101.719 27.6487 101.719 24.9989C101.719 22.349 103.365 20.6172 105.915 20.6172C108.423 20.6172 110 22.2276 110 24.7963V25.3946H103.603V25.4998C103.575 25.8147 103.618 26.132 103.728 26.4286C103.839 26.7252 104.015 26.9936 104.243 27.2145C104.48 27.4438 104.762 27.6227 105.071 27.7403C105.381 27.8579 105.711 27.9116 106.042 27.8983C106.473 27.9421 106.907 27.8506 107.282 27.6368C107.658 27.423 107.956 27.0977 108.136 26.7068H109.896ZM103.603 24.1783H108.136C108.151 23.8949 108.104 23.6116 107.999 23.3476C107.894 23.0837 107.733 22.8454 107.526 22.649C107.312 22.4448 107.059 22.2847 106.782 22.178C106.505 22.0713 106.209 22.0202 105.912 22.0276C105.305 22.0205 104.719 22.2444 104.274 22.6533C104.062 22.8478 103.892 23.0836 103.776 23.346C103.66 23.6084 103.6 23.8917 103.599 24.1783H103.603Z" fill="white"/>
<path d="M38.2489 8.35305C38.6313 8.32528 39.0153 8.37483 39.3777 8.4987C39.7402 8.62257 40.0735 8.81818 40.3573 9.07364C40.6203 9.30904 40.8217 9.60428 40.944 9.93396C41.0664 10.2636 41.1062 10.6179 41.0599 10.9662C41.0599 12.6467 40.0255 13.616 38.2489 13.616H36.094V8.35305H38.2489ZM37.0189 12.869H38.1455C38.4184 12.8859 38.692 12.8474 38.9493 12.7557C39.2066 12.6639 39.4423 12.521 39.6419 12.3356C39.8266 12.1644 39.9663 11.9512 40.0489 11.7143C40.1316 11.4774 40.1546 11.2241 40.116 10.9764C40.1521 10.7296 40.1272 10.4778 40.0434 10.2427C39.9596 10.0076 39.8195 9.79618 39.635 9.6267C39.4359 9.44291 39.2012 9.3011 38.9451 9.20986C38.6891 9.11861 38.4171 9.07984 38.1455 9.09587H37.0189V12.869Z" fill="white"/>
<path d="M42.1089 11.6249C42.0785 11.2636 42.1573 10.9016 42.3354 10.585C42.5136 10.2684 42.7828 10.0117 43.1088 9.84774C43.4547 9.66227 43.8418 9.56516 44.235 9.56516C44.6282 9.56516 45.0153 9.66227 45.3612 9.84774C45.6872 10.0117 45.9565 10.2684 46.1346 10.585C46.3127 10.9016 46.3915 11.2636 46.3611 11.6249C46.3924 11.9865 46.3141 12.3491 46.1363 12.6664C45.9585 12.9836 45.6892 13.2409 45.3629 13.4054C45.0167 13.5913 44.6292 13.6887 44.2354 13.6887C43.8417 13.6887 43.4542 13.5913 43.108 13.4054C42.7817 13.2411 42.5123 12.984 42.3343 12.6669C42.1563 12.3498 42.0779 11.9873 42.1089 11.6257V11.6249ZM45.4465 11.6249C45.4465 10.7641 45.0078 10.2572 44.2397 10.2572C43.4717 10.2572 43.033 10.7607 43.033 11.6249C43.033 12.4891 43.464 12.9925 44.2397 12.9925C45.0155 12.9925 45.4465 12.4899 45.4465 11.6249Z" fill="white"/>
<path d="M52.0141 13.6135H51.0909L50.1591 10.69H50.0884L49.1601 13.6135H48.2464L47.0034 9.64377H47.9059L48.7136 12.6732H48.78L49.7066 9.64377H50.5599L51.4866 12.6732H51.5573L52.3606 9.64377H53.2502L52.0141 13.6135Z" fill="white"/>
<path d="M54.2976 9.64552H55.1544V10.2764H55.2208C55.3503 10.0405 55.547 9.84777 55.7863 9.72206C56.0255 9.59635 56.2968 9.54327 56.5663 9.56944C56.7813 9.55312 56.9973 9.58091 57.2009 9.65106C57.4045 9.72122 57.5914 9.83223 57.7498 9.97718C57.8968 10.1105 58.0082 10.2779 58.0741 10.4644C58.14 10.6508 58.1583 10.8505 58.1274 11.0457V13.6152H57.2361V11.2397C57.255 11.1091 57.2428 10.9758 57.2005 10.8507C57.1581 10.7255 57.0867 10.612 56.9921 10.5192C56.8975 10.4263 56.7822 10.3568 56.6556 10.3161C56.529 10.2754 56.3945 10.2647 56.2629 10.2849C56.117 10.2777 55.9712 10.2991 55.8337 10.3482C55.6963 10.3972 55.57 10.4727 55.4621 10.5704C55.3621 10.6605 55.285 10.7727 55.2371 10.8979C55.1892 11.0231 55.1718 11.1578 55.1863 11.291V13.6135H54.2976V9.64552Z" fill="white"/>
<path d="M59.5444 8.09497H60.434V13.6144H59.5444V8.09497Z" fill="white"/>
<path d="M61.6705 11.6258C61.64 11.2646 61.7189 10.9025 61.897 10.586C62.0751 10.2694 62.3444 10.0127 62.6704 9.84871C63.0163 9.66325 63.4033 9.56613 63.7965 9.56613C64.1898 9.56613 64.5768 9.66325 64.9227 9.84871C65.2487 10.0127 65.518 10.2694 65.6961 10.586C65.8742 10.9025 65.9531 11.2646 65.9226 11.6258C65.9538 11.9873 65.8754 12.3498 65.6976 12.6668C65.5197 12.9839 65.2505 13.2411 64.9244 13.4055C64.5782 13.5915 64.1907 13.6888 63.797 13.6888C63.4032 13.6888 63.0157 13.5915 62.6695 13.4055C62.3432 13.2412 62.0738 12.9841 61.8959 12.667C61.7179 12.35 61.6394 11.9874 61.6705 11.6258V11.6258ZM65.008 11.6258C65.008 10.7651 64.5693 10.2582 63.8013 10.2582C63.0332 10.2582 62.5945 10.7616 62.5945 11.6258C62.5945 12.49 63.0255 12.9935 63.8013 12.9935C64.5771 12.9935 65.008 12.4909 65.008 11.6258Z" fill="white"/>
<path d="M66.8599 12.4902C66.8599 11.7756 67.4632 11.3636 68.5364 11.3055L69.7578 11.2431V10.9012C69.7578 10.4823 69.4432 10.2455 68.8347 10.2455C68.3382 10.2455 67.9934 10.4062 67.8951 10.6866H67.0331C67.1236 10.0028 67.8529 9.56769 68.8752 9.56769C70.0052 9.56769 70.6431 10.0635 70.6431 10.902V13.6143H69.7906V13.0561H69.7199C69.5636 13.2627 69.3581 13.4278 69.1218 13.5365C68.8855 13.6452 68.6258 13.6943 68.3657 13.6793C67.9897 13.7164 67.6136 13.609 67.315 13.3792C67.1773 13.2745 67.0652 13.1404 66.987 12.9868C66.9088 12.8331 66.8665 12.664 66.8633 12.492L66.8599 12.4902ZM69.7578 12.1483V11.8167L68.6571 11.8791C68.0365 11.9158 67.7546 12.1013 67.7546 12.4518C67.7546 12.8022 68.1063 13.0168 68.5907 13.0168C68.8729 13.0436 69.1551 12.9667 69.3837 12.8005C69.4897 12.7248 69.578 12.6274 69.6427 12.5148C69.7074 12.4023 69.7469 12.2773 69.7587 12.1483H69.7578Z" fill="white"/>
<path d="M71.8139 11.6279C71.7818 11.3674 71.8066 11.1032 71.8865 10.8531C71.9664 10.603 72.0997 10.3729 72.2771 10.1783C72.4546 9.98376 72.6722 9.82931 72.9151 9.72544C73.1581 9.62158 73.4207 9.57073 73.6852 9.57634C73.9568 9.5602 74.2279 9.61626 74.4703 9.73873C74.7128 9.8612 74.9179 10.0456 75.0644 10.273H75.1342V8.09497H76.0238V13.6144H75.1713V12.987H75.1006C74.944 13.2129 74.7315 13.3951 74.4836 13.5164C74.2356 13.6376 73.9604 13.6937 73.6844 13.6794C73.4198 13.6854 73.157 13.6349 72.9138 13.5311C72.6707 13.4274 72.453 13.273 72.2755 13.0783C72.098 12.8836 71.9649 12.6533 71.8852 12.403C71.8056 12.1527 71.7812 11.8883 71.8139 11.6279V11.6279ZM72.7327 11.6279C72.7327 12.4698 73.1836 12.9767 73.9395 12.9767C74.1126 12.9809 74.2845 12.9478 74.4433 12.8796C74.6022 12.8114 74.7442 12.7099 74.8596 12.5819C74.9751 12.454 75.0611 12.3027 75.1118 12.1386C75.1624 11.9745 75.1766 11.8014 75.1532 11.6313C75.1747 11.4614 75.1591 11.2889 75.1076 11.1255C75.0561 10.962 74.9698 10.8115 74.8546 10.6839C74.7394 10.5564 74.598 10.4548 74.4398 10.3862C74.2816 10.3175 74.1104 10.2833 73.9378 10.2858C73.7649 10.2813 73.5932 10.3143 73.4345 10.3825C73.2758 10.4507 73.1341 10.5524 73.0192 10.6805C72.9042 10.8086 72.8189 10.9601 72.7691 11.1243C72.7194 11.2885 72.7064 11.4616 72.731 11.6313L72.7327 11.6279Z" fill="white"/>
<path d="M79.706 11.6249C79.6755 11.2636 79.7544 10.9016 79.9325 10.585C80.1106 10.2684 80.3799 10.0117 80.7059 9.84774C81.0518 9.66227 81.4388 9.56516 81.832 9.56516C82.2253 9.56516 82.6123 9.66227 82.9582 9.84774C83.2842 10.0117 83.5535 10.2684 83.7316 10.585C83.9097 10.9016 83.9886 11.2636 83.9581 11.6249C83.9894 11.9866 83.911 12.3493 83.733 12.6665C83.555 12.9838 83.2855 13.2411 82.9591 13.4054C82.6128 13.5913 82.2253 13.6887 81.8316 13.6887C81.4379 13.6887 81.0504 13.5913 80.7041 13.4054C80.3779 13.2409 80.1086 12.9836 79.9307 12.6664C79.7529 12.3491 79.6746 11.9865 79.706 11.6249V11.6249ZM83.0435 11.6249C83.0435 10.7641 82.6048 10.2572 81.8368 10.2572C81.0688 10.2572 80.63 10.7607 80.63 11.6249C80.63 12.4891 81.061 12.9925 81.8368 12.9925C82.6126 12.9925 83.0401 12.4891 83.0401 11.6249H83.0435Z" fill="white"/>
<path d="M85.1521 9.64552H86.0089V10.2764H86.0753C86.2048 10.0405 86.4015 9.84777 86.6408 9.72206C86.88 9.59635 87.1513 9.54327 87.4208 9.56944C87.6358 9.55312 87.8518 9.58091 88.0554 9.65106C88.259 9.72122 88.4459 9.83223 88.6043 9.97718C88.7513 10.1105 88.8627 10.2779 88.9286 10.4644C88.9945 10.6508 89.0128 10.8505 88.9819 11.0457V13.6152H88.0915V11.2397C88.1104 11.1091 88.0982 10.9758 88.0558 10.8507C88.0134 10.7255 87.9421 10.612 87.8475 10.5192C87.7528 10.4263 87.6376 10.3568 87.5109 10.3161C87.3843 10.2754 87.2498 10.2647 87.1183 10.2849C86.9724 10.2777 86.8265 10.2991 86.6891 10.3482C86.5516 10.3972 86.4253 10.4727 86.3175 10.5704C86.2175 10.6605 86.1404 10.7727 86.0924 10.8979C86.0445 11.0231 86.0271 11.1578 86.0417 11.291V13.6135H85.1521V9.64552Z" fill="white"/>
<path d="M94.0091 8.65417V9.66027H94.9857V10.3202H94.0091V12.3614C94.0091 12.7769 94.2039 12.9598 94.6469 12.9598C94.7604 12.9595 94.8737 12.9535 94.9865 12.9418V13.5941C94.8266 13.6193 94.6649 13.6327 94.503 13.6342C93.5134 13.6342 93.1195 13.3274 93.1195 12.5623V10.3202H92.4041V9.66027H93.1195V8.65417H94.0091Z" fill="white"/>
<path d="M96.1973 8.09497H97.0791V10.2858H97.1498C97.2848 10.0479 97.4866 9.85404 97.7307 9.72778C97.9748 9.60152 98.2506 9.54831 98.5246 9.57463C98.7382 9.56235 98.9521 9.59305 99.1534 9.66488C99.3547 9.73672 99.5393 9.8482 99.696 9.99263C99.8413 10.1259 99.9518 10.2921 100.018 10.477C100.084 10.6619 100.105 10.86 100.077 11.0543V13.6187H99.1901V11.2449C99.2072 11.1152 99.1941 10.9834 99.1518 10.8595C99.1095 10.7356 99.0391 10.623 98.946 10.5304C98.8529 10.4378 98.7396 10.3675 98.6149 10.3251C98.4901 10.2827 98.3572 10.2693 98.2264 10.2858C98.0762 10.2737 97.9252 10.2914 97.7821 10.338C97.6389 10.3845 97.5066 10.4589 97.3928 10.5568C97.2872 10.6469 97.2047 10.7606 97.1522 10.8886C97.0998 11.0166 97.0788 11.1552 97.0911 11.2928V13.611H96.1973V8.09497Z" fill="white"/>
<path d="M105.27 12.5415C105.121 12.9222 104.847 13.2423 104.493 13.4506C104.139 13.6588 103.725 13.7433 103.317 13.6904C103.026 13.7002 102.737 13.6524 102.466 13.5496C102.194 13.4469 101.946 13.2913 101.737 13.092C101.542 12.9073 101.394 12.6789 101.307 12.4261C101.22 12.1732 101.195 11.9033 101.234 11.6389C101.196 11.3746 101.222 11.1053 101.31 10.8528C101.397 10.6003 101.543 10.3717 101.736 10.1857C101.944 9.98429 102.191 9.82582 102.461 9.71945C102.732 9.61308 103.021 9.56092 103.312 9.56598C103.583 9.54248 103.855 9.57817 104.111 9.67052C104.366 9.76288 104.598 9.90965 104.789 10.1005C104.981 10.2913 105.128 10.5215 105.221 10.775C105.313 11.0284 105.348 11.2988 105.323 11.5671V11.8406H102.139V11.8842C102.126 12.0329 102.148 12.1825 102.203 12.3216C102.257 12.4608 102.343 12.5857 102.454 12.6869C102.694 12.908 103.012 13.0281 103.34 13.0219C103.546 13.0482 103.755 13.0171 103.945 12.9322C104.134 12.8472 104.296 12.7116 104.412 12.5407L105.27 12.5415ZM102.14 11.2593H104.417C104.427 11.1232 104.406 10.9865 104.354 10.8599C104.303 10.7332 104.223 10.6199 104.121 10.5285C103.898 10.3287 103.607 10.2221 103.307 10.231C103.003 10.2252 102.707 10.3311 102.477 10.5285C102.371 10.6189 102.286 10.7311 102.228 10.8572C102.169 10.9834 102.14 11.1206 102.14 11.2593V11.2593Z" fill="white"/>
</g>
<defs>
<filter id="filter0_d" x="-16" y="-12" width="152" height="72" filterUnits="userSpaceOnUse" color-interpolation-filters="sRGB">
<feFlood flood-opacity="0" result="BackgroundImageFix"/>
<feColorMatrix in="SourceAlpha" type="matrix" values="0 0 0 0 0 0 0 0 0 0 0 0 0 0 0 0 0 0 127 0" result="hardAlpha"/>
<feOffset dy="4"/>
<feGaussianBlur stdDeviation="8"/>
<feColorMatrix type="matrix" values="0 0 0 0 0.337255 0 0 0 0 0.486275 0 0 0 0 0.678431 0 0 0 0.16 0"/>
<feBlend mode="normal" in2="BackgroundImageFix" result="effect1_dropShadow"/>
<feBlend mode="normal" in="SourceGraphic" in2="effect1_dropShadow" result="shape"/>
</filter>
<clipPath id="clip0">
<rect width="120" height="40" fill="white"/>
</clipPath>
</defs>
</svg>
