<svg version="1.1" xmlns="http://www.w3.org/2000/svg" xmlns:xlink="http://www.w3.org/1999/xlink" viewBox="0 0 172 172"><g fill="none" fill-rule="nonzero" stroke="none" stroke-width="1" stroke-linecap="butt" stroke-linejoin="miter" stroke-miterlimit="10" stroke-dasharray="" stroke-dashoffset="0" font-family="none" font-weight="none" font-size="none" text-anchor="none" style="mix-blend-mode: normal"><path d="M0,172v-172h172v172z" fill="none"></path><g fill="#fa4a29"><path d="M131.81067,51.54401c-2.33302,0.00061 -4.43306,1.41473 -5.31096,3.57628c-0.8779,2.16155 -0.3586,4.6395 1.31331,6.26668l18.87969,18.87969h-135.22604c-2.06765,-0.02924 -3.99087,1.05709 -5.03322,2.843c-1.04236,1.78592 -1.04236,3.99474 0,5.78066c1.04236,1.78592 2.96558,2.87225 5.03322,2.843h135.22604l-18.87969,18.87969c-1.49778,1.43802 -2.10113,3.5734 -1.57735,5.5826c0.52378,2.0092 2.09284,3.57826 4.10204,4.10204c2.0092,0.52378 4.14458,-0.07957 5.5826,-1.57735l28.16276,-28.16276c1.41918,-1.08154 2.25398,-2.76211 2.25837,-4.54643c0.00439,-1.78431 -0.82213,-3.46898 -2.23597,-4.55748c-0.01117,-0.0075 -0.02237,-0.01497 -0.03359,-0.02239l-28.15157,-28.15156c-1.07942,-1.10959 -2.56163,-1.73559 -4.10964,-1.73568z"></path></g></g></svg>