<svg version="1.1" xmlns="http://www.w3.org/2000/svg" xmlns:xlink="http://www.w3.org/1999/xlink" viewBox="0 0 172 172"><g fill="none" fill-rule="nonzero" stroke="none" stroke-width="1" stroke-linecap="butt" stroke-linejoin="miter" stroke-miterlimit="10" stroke-dasharray="" stroke-dashoffset="0" font-family="none" font-weight="none" font-size="none" text-anchor="none" style="mix-blend-mode: normal"><path d="M0,172v-172h172v172z" fill="none"></path><g fill="#fa4a29"><path d="M16.125,59.125h21.5v10.75h-5.375c-2.97237,0 -5.375,2.408 -5.375,5.375c0,2.967 2.40263,5.375 5.375,5.375h21.5c2.97238,0 5.375,-2.408 5.375,-5.375c0,-2.967 -2.40262,-5.375 -5.375,-5.375h-5.375v-10.75h21.5c2.97237,0 5.375,-2.408 5.375,-5.375v-37.625c0,-2.967 -2.40263,-5.375 -5.375,-5.375h-53.75c-2.97237,0 -5.375,2.408 -5.375,5.375v37.625c0,2.967 2.40263,5.375 5.375,5.375zM21.5,21.5h43v26.875h-43zM155.875,91.375h-53.75c-2.97237,0 -5.375,2.408 -5.375,5.375v37.625c0,2.967 2.40263,5.375 5.375,5.375h21.5v10.75h-5.375c-2.97237,0 -5.375,2.408 -5.375,5.375c0,2.967 2.40263,5.375 5.375,5.375h21.5c2.97237,0 5.375,-2.408 5.375,-5.375c0,-2.967 -2.40263,-5.375 -5.375,-5.375h-5.375v-10.75h21.5c2.97237,0 5.375,-2.408 5.375,-5.375v-37.625c0,-2.967 -2.40263,-5.375 -5.375,-5.375zM150.5,129h-43v-26.875h43zM86,32.25c0,-2.967 2.40263,-5.375 5.375,-5.375h21.5c11.85725,0 21.5,9.64275 21.5,21.5v13.89975l1.57487,-1.57487c2.10162,-2.10162 5.49863,-2.10162 7.60025,0c2.10163,2.10162 2.10162,5.49863 0,7.60025l-10.74462,10.74463c-2.0425,2.04788 -5.46638,2.15 -7.611,0l-10.74462,-10.74462c-2.10163,-2.10162 -2.10163,-5.49863 0,-7.60025c2.10162,-2.10162 5.49862,-2.10162 7.60025,0l1.57487,1.57487v-13.89975c0,-5.92862 -4.82137,-10.75 -10.75,-10.75h-21.5c-2.97237,0 -5.375,-2.408 -5.375,-5.375zM59.125,129h21.5c2.97237,0 5.375,2.408 5.375,5.375c0,2.967 -2.40263,5.375 -5.375,5.375h-21.5c-11.85725,0 -21.5,-9.64275 -21.5,-21.5v-8.52475l-1.57487,1.57488c-2.10163,2.10162 -5.49862,2.10162 -7.60025,0c-2.10163,-2.10162 -2.10163,-5.49863 0,-7.60025l10.74462,-10.74462c2.0855,-2.09625 5.52013,-2.09087 7.611,0l10.74463,10.74462c2.10163,2.10162 2.10163,5.49863 0,7.60025c-1.04812,1.04812 -2.42412,1.57487 -3.80013,1.57487c-1.376,0 -2.752,-0.52675 -3.80013,-1.57487l-1.57487,-1.57488v8.52475c0,5.92863 4.82138,10.75 10.75,10.75z"></path></g></g></svg>